# xmcd
#
# Track frame offsets:
#	150
#	10843
#	30335
#	43092
#	57548
#	76369
#
# Disc length: 1222 seconds
#
# Revision: 0
# Processed by: cddbd v1.5.2PL0 Copyright (c) Steve Scherf et al.
# Submitted via: dBpowerAMP V4.0
#
DISCID=4104c406
DTITLE=Slim Cessna - Rare Recordings
DYEAR=2007
DGENRE=Country
TTITLE0=Sunshine
TTITLE1=Dear Amelia
TTITLE2=Kristin And Billy
TTITLE3=Untitled
TTITLE4=Uncle Johns Boat
TTITLE5=Things I Believe In
EXTD=
EXTT0=
EXTT1=
EXTT2=
EXTT3=
EXTT4=
EXTT5=
PLAYORDER=
